<?xml version="1.0" encoding="utf-8"?>
<svg version="1.1" xmlns:xlink="http://www.w3.org/1999/xlink" width="35px" height="30px" xmlns="http://www.w3.org/2000/svg">
  <g transform="matrix(1 0 0 1 -20 -8 )">
    <path d="M 9.15121951219512 11.5384615384615  L 3.63658536585366 11.5384615384615  L 14.2731707317073 23.5276442307692  L 9.15121951219512 11.5384615384615  Z M 11.5414634146341 12  L 17.5 25.4567307692308  L 23.4585365853659 12  L 11.5414634146341 12  Z M 3.29512195121951 9.23076923076923  L 9.20243902439024 9.23076923076923  L 12.6853658536585 2.30769230769231  L 8.21219512195122 2.30769230769231  L 3.29512195121951 9.23076923076923  Z M 25.8487804878049 11.5384615384615  L 20.7268292682927 23.5276442307692  L 31.3634146341463 11.5384615384615  L 25.8487804878049 11.5384615384615  Z M 15.1609756097561 2.30769230769231  L 11.6780487804878 9.23076923076923  L 23.3219512195122 9.23076923076923  L 19.8390243902439 2.30769230769231  L 15.1609756097561 2.30769230769231  Z M 22.3146341463415 2.30769230769231  L 25.7975609756098 9.23076923076923  L 31.7048780487805 9.23076923076923  L 26.7878048780488 2.30769230769231  L 22.3146341463415 2.30769230769231  Z M 27.3341463414634 0  C 27.709756097561 0  28 0.156249999999998  28.2048780487805 0.46875  L 34.7609756097561 9.69951923076923  C 34.920325203252 9.91586538461539  34.9943089430894 10.1652644230769  34.9829268292683 10.4477163461538  C 34.9715447154472 10.7301682692308  34.8747967479675 10.9735576923077  34.6926829268293 11.1778846153846  L 18.3024390243902 29.6394230769231  C 18.0975609756098 29.8798076923077  17.830081300813 30  17.5 30  C 17.169918699187 30  16.9024390243902 29.8798076923077  16.6975609756098 29.6394230769231  L 0.307317073170732 11.1778846153846  C 0.12520325203252 10.9735576923077  0.0284552845528455 10.7301682692308  0.0170731707317073 10.4477163461538  C 0.0056910569105691 10.1652644230769  0.0796747967479675 9.91586538461539  0.239024390243902 9.69951923076923  L 6.79512195121951 0.46875  C 7 0.156249999999998  7.29024390243902 0  7.66585365853659 0  L 27.3341463414634 0  Z " fill-rule="nonzero" fill="#ffffff" stroke="none" transform="matrix(1 0 0 1 20 8 )" />
  </g>
</svg>